<svg width="248" height="111" fill="none" xmlns="http://www.w3.org/2000/svg">
  <path d="M179.7 32.6c-.5-.6-1.1-1-1.8-1.5-.7-.3-1.5-.6-2.4-.7-5.7-.7-11.6-.5-17.2.7 1.9-8.6-.1-15.1-2-18.9a5.6 5.6 0 0 0-3-2.7 8 8 0 0 0-4.7-.3 49.8 49.8 0 0 0-15.1 6.5C129.8 9.7 124 4.5 117 .8a7.7 7.7 0 0 0-4-.8c-1.4.1-2.7.6-3.8 1.3A41.6 41.6 0 0 0 95 18 49.8 49.8 0 0 0 79 13.5a8 8 0 0 0-4.6 1 5.6 5.6 0 0 0-2.7 3c-1.4 3.9-2.6 10.6.4 18.9-5.8-.5-11.7 0-17.2 1.5-.9.2-1.6.5-2.3 1-.7.4-1.2 1-1.6 1.6-.8 1.2-1 2.6-.4 4 2.2 5 8.4 14.4 25.9 21a93.4 93.4 0 0 0 41 5.4c8-.5 23.2-1.5 39.9-10.3 16.6-8.9 21.5-19 23-24.2.4-1.3 0-2.7-.8-3.8Zm-30-20c.6-.2 1.1-.1 1.6 0 .4.2.8.5 1 1a26.1 26.1 0 0 1 1 19.3v.3c-1.1 3.4-2.8 6.8-4.9 10a61.5 61.5 0 0 1-17 17.1l-1.4.9c5.1-6 9.8-15 9-27.6-.2-5-1.5-10-3.8-14.8 4.3-2.8 9.2-5 14.5-6.2Zm-37.6-8.8 1.2-.4c.5 0 1 0 1.4.3a36 36 0 0 1 2.6 63.5 38.2 38.2 0 0 1-9.7-6.4 36 36 0 0 1 4.5-57ZM75.9 18.2c.2-.4.5-.7 1-1 .4-.2 1-.3 1.4-.2 5.5.6 10.7 2 15.2 4.4-1.7 5-2.3 10.1-2 15.2A37.7 37.7 0 0 0 104 62.8l-1.4-.7c-7.6-3.9-14-9-19-15-2.6-2.8-4.6-6-6-9.3l-.2-.2a26.1 26.1 0 0 1-1.4-19.4Zm-21 25c-.2-.2-.2-.4-.2-.6l.3-.6c.2-.4.7-.8 1.2-1a49.8 49.8 0 0 1 17.5-1c1.6 3.2 3.6 6.2 6 9.1a68.8 68.8 0 0 0 26.6 18.7c-9.7-.1-19.1-2-27.7-5.3-16.2-6.2-21.8-14.7-23.8-19.2Zm121.4-7.5c-1.4 4.8-5.9 14-21.2 22a80.4 80.4 0 0 1-26.9 8.8c8-4.5 17.7-11.9 24.1-21.9 2-3.1 3.7-6.4 4.9-9.8a49.8 49.8 0 0 1 17.5-1c.5 0 1 .3 1.3.7l.4.6v.6Z" fill="#4A1063"/>
  <path d="M8 73.3c-3.4-3-6-5.5-7.6-7.5a221 221 0 0 0 12.8-17.7l-1-.6a28 28 0 0 0-3.1-1.4l.7-1c.3-.3.9-.3 1.8 0s1.9.8 3 1.5c1 .7 2 1.3 2.7 2a14.1 14.1 0 0 1 4.1 6.5c.3 1.2.1 2.2-.5 3-.8.9-1.8 1.4-3.1 1.5-1.3 0-2.6-.2-3.9-.8 1.4 1.6 2.5 3.4 3.2 5.3a13 13 0 0 1 1.2 5.4c0 1.8-.6 3.2-1.6 4.4-1.2 1.4-2.5 2-4.1 1.6-1.6-.2-3.1-1-4.6-2.2Zm.7-2.2c1.3 1.2 2.5 2 3.5 2.2 1 .4 1.9 0 2.7-1a5 5 0 0 0 1.3-3.5c0-1.2-.2-2.4-.7-3.6l-2-4c-.8-1.2-1.3-2.1-1.5-2.8-.3-.7-.3-1.2 0-1.5.2-.2.5-.3.8-.2.4 0 1 .2 1.8.5 1 .4 2 .7 2.6.7a2 2 0 0 0 2-.7c.6-.9.7-2 0-3.3a11 11 0 0 0-4.3-4.7A158 158 0 0 1 3.5 65.4c0 .4.5 1.2 1.5 2.2.9 1 2.1 2.2 3.7 3.5ZM34.9 92.8c-.3 0-.5 0-.8-.2-1-.5-2-2.4-3-5.4-1-3-1.8-6-2.4-8.7a119.7 119.7 0 0 0-2.2 6c-.4.6-.8.8-1.3.7-.3.2-.1-.6.4-2.5a85.2 85.2 0 0 1 4.8-12 8 8 0 0 1 1.2-1.6l.9.1c.3.3.4.7.2 1.4a28 28 0 0 1-1.4 3.2l-.4.8a24.3 24.3 0 0 0 8 2.4c1.5.1 2.5-.2 3-1 .2-.4.2-1-.1-1.9a8 8 0 0 0-2-2.9c-.9-1-2.3-2.1-4-3.2l-1-.6c-1.2-.7-2.2-1-3.1-1-.9 0-1.7.5-2.4 1.8-.3-.2-.5-.6-.5-1.1 0-.5 0-1 .3-1.3.7-1.3 1.8-1.7 3.3-1.4a21.6 21.6 0 0 1 9 5.5c1.2 1.2 1.9 2.5 2.3 3.8.4 1.4.2 2.7-.5 4a3 3 0 0 1-2.4 1.4c-1 0-2.2 0-3.4-.3a60.5 60.5 0 0 1-7-2.2 32.5 32.5 0 0 0 5 15.3v.6c-.1.2-.3.2-.5.3ZM48.6 97.7c-1.9-.8-3-1.7-3.6-2.7-.5-1-.4-2.4.3-4.2l3.5-7.3 3-7.2c.2-.5.5-.8.8-.9.2 0 .8 0 1.5.4l2.3 1a165 165 0 0 0 8.2 3.6c.6.3 1 .6 1.1 1 .3.6.3 1 0 1.7l-.2.2h-.3L64 82l-10.5-4-.2-.1v.5l-2.5 5.9a49.3 49.3 0 0 0 9.4 3.6l.7.3.1.5v.5c-.2.5-1 .5-2.7 0a105.3 105.3 0 0 1-8.5-3 10 10 0 0 0-1.7 3l-.8 2-.9 2.2c.3.5.6.8 1 1A27.4 27.4 0 0 0 54 97a42 42 0 0 1 5.3 2.1c.2.2.2.4.1.6-.6 1.5-3.8 1-9.8-1.4l-1.1-.5ZM82.7 108.2c-.3 0-.5-.2-.5-.4v-.6c0-.5.4-1.3.9-2.3l1-2.3c.3-1.9.5-3.3.5-4.3l-1.1-.3-3.8-.9-3.3-.8-4.7-1.1-.2 1.4c-.3 1-.4 2.4-.4 4.1a52.6 52.6 0 0 1-.4 4l-.1.2a1 1 0 0 1-.8.2c-.6-.1-1-1-1-2.4a23.1 23.1 0 0 1 1.4-7.8c-.5-.1-.8-.3-1-.5-.2-.2-.2-.5-.1-.8 0-.2.2-.4.3-.5h1l.1-1 .5-1.5a52 52 0 0 1 2.2-6.3 9.3 9.3 0 0 1 3.1-3.8c1.4-1 3.1-1.2 5.3-.7 2.4.6 4 2.3 4.8 5.3.8 3 1 6.1.8 9.5a58.8 58.8 0 0 1-2.7 13c-.6.5-1.3.7-1.8.6Zm2-11.3c.6-4.4.6-8 0-10.7-.5-2.8-2-4.4-4.3-5-1.7-.3-3.1.2-4.3 1.6-1.2 1.3-2 3-2.6 4.7-.6 1.7-1.2 3.7-1.7 6l13 3.4ZM104.4 110.7c-.6 0-1-.4-1.3-1.1l-.5-2.8v-1a80.5 80.5 0 0 1-.6-12.7v-2.7c-1.5 0-3.5-.3-6.2-.6h-.7a.8.8 0 0 1-.7-.6V88l2.4.2c4.2.3 8 .7 11.3 1.3 3.3.5 5 1.3 4.8 2.2l-.1.6h-.5a55.4 55.4 0 0 1-6-1.2l-2.3-.5a125.8 125.8 0 0 0 .9 17.7 8.4 8.4 0 0 1 .3 1.9c0 .3 0 .5-.2.6h-.6ZM135.6 109.8c-.5.1-1-.1-1.3-.8-.3-.7-.5-1.7-.6-3.1a114 114 0 0 0-1.4-8.8 129.8 129.8 0 0 1-9.5 5l.7 7.6c0 .4-.2.6-.6.8-.6.1-1-.2-1.2-1-.3-.7-.5-2-.7-3.6l-.5-3.2c-.6.4-1.2.6-1.6.7-.2-.2-.2-.6-.3-1.2a53.7 53.7 0 0 1 1.3-.7l.1-.6c0-1.2-.4-3-.8-5.5l-.9-5.6v-1.6c0-.2 0-.3.2-.3l.4-.2c.4 0 .6.1.7.4l2.5 12.5 3.2-1.6 7-4-.6-8c0-.9.2-1.3 1-1.4.2 0 .4 0 .5.3.2.2.2.5.2 1l.5 6.2a121 121 0 0 0 2.6 15.7c0 .5-.3.8-.9 1ZM149.7 105v-.6c0-.2 0-.3.3-.3.2-.1.5-.1.8 0h.8l2 .2 2-.3c2.9-.8 4.8-2 6-3.7a7.2 7.2 0 0 0 .7-6c-.5-2-1.5-3.5-3-4.7-1.5-1.3-3.2-2-5.2-2.5-1.9-.4-3.7-.5-5.5-.2l5.8 14.2v1c0 .3-.2.5-.6.6l-1-1.7a299.8 299.8 0 0 1-5.4-11.7c-.6-1.4-1-2.2-1.3-2.3a30.2 30.2 0 0 0-7.3 2.9l-.7.6c-.1 0-.2 0-.3-.2a15.4 15.4 0 0 0-.5-.9c0-.5.3-1 1.2-1.7l3-1.4 2.2-.8c2.4-.6 5.2-.8 8.1-.5 3 .3 5.6 1.2 8 2.7 2.3 1.5 3.8 3.5 4.5 6.2a9 9 0 0 1-3.3 9.7 12.8 12.8 0 0 1-9 2.8c-1.3-.2-2-.6-2.3-1.3ZM184.7 95.5c-1.8.8-3.6 1.2-5.4 1-1.7 0-3.3-.5-4.7-1.5a9.9 9.9 0 0 1-4.2-7.8 6.3 6.3 0 0 1 3.8-5.7 17 17 0 0 1 6.8-1.7c2.2 0 4.2.4 5.9 1.4 1.7 1 3 2.5 4 4.4.5 1.3.6 2.6 0 4a9.5 9.5 0 0 1-2.6 3.4c-1.1 1-2.3 1.9-3.6 2.5Zm-1.4-1.5a15 15 0 0 0 5-3.5c1.3-1.3 1.5-2.8.8-4.3a7.3 7.3 0 0 0-5.8-4.5c-2.7-.5-5.6 0-8.8 1.6-1.5.7-2.4 1.6-2.6 2.8a7 7 0 0 0 .8 4.1 8 8 0 0 0 2.5 3.2 8 8 0 0 0 8 .7ZM208 82.3a6.2 6.2 0 0 1-7.1.3 27 27 0 0 1-9.6-11.2c-.1-.8.2-1.5 1-2 .2-.2.4-.3.6-.2.2 0 .3 0 .5.2.2.4.3 1 0 1.6-.2.2-.3.5-.2.9.2.4.5 1 1 1.6l1 1.5a19 19 0 0 0 6.5 5.9c2.1 1 4 1 5.8-.2a6.2 6.2 0 0 0 2.7-5.7 6.4 6.4 0 0 0-1.1-3.1 82.5 82.5 0 0 0-6.9-7.2c-.3-.5-.4-.8-.4-1.1 0-.3.3-.6.6-.8.3-.2.5-.2.8 0a132.8 132.8 0 0 1 4.3 4.7c.7 1 1.6 1.7 2.5 2.5a63.7 63.7 0 0 0 5.5 4l.6.5c.3.5.2.9-.3 1.2a18 18 0 0 1-4.2-2.4c.4 1 .5 2.1.3 3.3a9.2 9.2 0 0 1-3.8 5.8ZM229 65.6a9.9 9.9 0 0 1-4.8 2.8c-1.5.2-3-.5-4.4-2.1-7.7-9.2-11-14-9.9-14.3.4-.3 1.2.1 2.3 1.3l3.8 5c2.1 3 3.8 5 4.9 6.3l.7.8c.4.4.9.6 1.4.8.6.2 1.2.1 1.6-.2l5.6-4.3c.2-.2.5 0 .8.3.3.3.4.6.4.9 0 .2-.2.6-.6 1l-1.8 1.7ZM247.6 45.2c-.2.2-.3.3-.5.3s-.4 0-.6-.2c-.4-.4-1-1-1.6-1.9-.6-.8-1.2-1.5-1.7-1.9-1.4-1.2-2.6-2-3.6-2.4l-.7.9-2.5 2.9-2.2 2.6-3.1 3.7 1.1.8c.9.7 2 1.5 3.6 2.3a52.3 52.3 0 0 1 3.3 2l.2.3c0 .3 0 .6-.2.8-.4.5-1.3.4-2.6-.3a23.1 23.1 0 0 1-6.3-4.7l-1 .7c-.2 0-.4 0-.7-.3-.2-.1-.3-.3-.3-.5l.4-.8-.7-.6-1.3-1.1c-2-1.9-3.5-3.5-4.6-4.8a9.3 9.3 0 0 1-2-4.5c-.2-1.7.3-3.3 1.8-5 1.6-2 3.9-2.6 6.9-2 3 .7 5.9 1.9 8.8 3.6a58.8 58.8 0 0 1 10.4 8.2c.2.8 0 1.5-.3 1.9Zm-9.1-6.9c-3.7-2.5-7-4-9.6-4.8-2.7-.7-4.8-.2-6.3 1.7a4.1 4.1 0 0 0-.7 4.5c.8 1.7 1.8 3.2 3 4.5l4.7 4.1 8.9-10Z" fill="#000"/>
</svg>
